Coordinates
version=1
nRows=16
nColumns=18
inDegrees=yes

Units are S.I. units (second, meters, Newtons, ...)
If the header above contains a line with 'inDegrees', this indicates whether rotational values are in degrees (yes) or radians (no).

endheader
time	bJoint_3	seatpos	slocangle	soarinout	sblpos	hipangle	kneeangle	footangle	lbackangle	uarmleft_out	uarmleft_trn	uarmleft_up	se_inout	se_updown	handleleft_out	handleleft_trn	handleleft_up
      1.74500000	     -0.00000001	     -0.10926839	      5.39216933	     13.70084681	    -13.70084681	     66.83228685	     55.46163892	     32.29392577	     -9.12469914	     20.63509073	     31.65616608	    -61.73389810	      4.83051137	     -4.09548292	    -18.80052629	     45.96614194	     55.61158813
      1.75000000	     -0.00000001	     -0.11230029	      5.93085341	     13.70254090	    -13.70254090	     66.41844276	     56.25911287	     32.67755563	     -8.76233367	     20.11835769	     31.59285273	    -61.89458328	      4.99116477	     -4.08316608	    -18.56680017	     45.90414686	     55.80507207
      1.75500000	     -0.00000001	     -0.11536697	      6.53308598	     13.70550308	    -13.70550308	     66.00549738	     57.05529287	     33.06079025	     -8.33373009	     19.61695032	     31.61268024	    -62.08403163	      5.09361225	     -4.34829025	    -18.33688859	     45.89863128	     55.89027142
      1.76000000	     -0.00000001	     -0.11826361	      7.10821363	     13.70700809	    -13.70700809	     65.62045435	     57.79807232	     33.41852667	     -7.94651337	     19.30710633	     31.31990020	    -62.21458860	      4.64863645	     -4.20561703	    -17.97050534	     46.16579052	     56.04827359
      1.76500000	     -0.00000001	     -0.12232727	      7.71263904	     13.70464870	    -13.70464870	     65.08812253	     58.82561903	     33.91374156	     -7.60638523	     18.89471847	     31.33923488	    -62.40101740	      4.78002098	     -4.49705844	    -17.76166102	     46.13883409	     56.12534130
      1.77000000	     -0.00000001	     -0.12526265	      8.32010920	     13.69734941	    -13.69734941	     64.70904892	     59.55778810	     34.26683702	     -7.17982076	     18.35307049	     31.16686812	    -62.57268397	      4.78536961	     -4.43902115	    -17.47617470	     46.16694916	     56.31135573
      1.77500000	     -0.00000001	     -0.12832668	      8.89987353	     13.71018389	    -13.71018389	     64.31804181	     60.31340424	     34.63144605	     -6.82213895	     17.81856596	     30.91475534	    -62.76452100	      4.76142104	     -4.24258077	    -17.17260688	     46.21208048	     56.49918796
      1.78000000	     -0.00000001	     -0.13123685	      9.52079708	     13.68752071	    -13.68752071	     63.95093489	     61.02320404	     34.97413893	     -6.36764941	     17.13733920	     30.87065891	    -62.95614111	      5.11532578	     -4.33393588	    -16.97193552	     46.05692415	     56.67905869
      1.78500000	     -0.00000001	     -0.13533753	     10.17723182	     13.71191145	    -13.71191145	     63.44042717	     62.01087029	     35.45129746	     -6.03273172	     16.71550579	     30.69744583	    -63.19615582	      5.00359802	     -4.48042295	    -16.67889589	     46.17816102	     56.70901980
      1.79000000	     -0.00000001	     -0.13826528	     10.79950772	     13.68326547	    -13.68326547	     63.08060986	     62.70742380	     35.78803366	     -5.59563105	     16.01970070	     30.45410206	    -63.36590556	      5.23929874	     -4.22988843	    -16.41514850	     46.06751589	     56.99596096
      1.79500000	     -0.00000001	     -0.14232420	     11.41960250	     13.70755732	    -13.70755732	     62.58793905	     63.66173682	     36.24967587	     -5.31027596	     15.58783490	     30.20886177	    -63.59569048	      5.17066951	     -4.21552905	    -16.12985028	     46.15308297	     57.07125165
      1.80000000	     -0.00000001	     -0.14523778	     12.10264291	     13.70484816	    -13.70484816	     62.23854874	     64.33891894	     36.57746768	     -4.85047872	     15.10873257	     29.93728303	    -63.81039734	      4.90737635	     -4.29318125	    -15.80725368	     46.35827314	     57.11614959
      1.80500000	     -0.00000001	     -0.14937366	     12.77431268	     13.70757259	    -13.70757259	     61.74845567	     65.28938281	     37.03783848	     -4.50882679	     14.54791479	     29.69200109	    -64.04395512	      5.02218672	     -4.25864135	    -15.54185100	     46.33901770	     57.24409251
      1.81000000	     -0.00000002	     -0.15230632	     13.45280586	     13.70250481	    -13.70250481	     61.40497380	     65.95591917	     37.36089298	     -4.05937430	     13.83664244	     29.46171786	    -64.29051685	      5.21152875	     -4.24925834	    -15.28836094	     46.29534646	     57.36001226
      1.81500000	     -0.00000002	     -0.15617887	     14.16795090	     13.71586827	    -13.71586827	     60.95634388	     66.82700467	     37.78334855	     -3.67333503	     13.23949724	     29.23533660	    -64.57063874	      5.29403125	     -4.38740795	    -15.02821925	     46.32135569	     57.38045200
      1.82000000	     -0.00000002	     -0.15941947	     14.85163021	     13.70258510	    -13.70258510	     60.58509988	     67.54827140	     38.13337128	     -3.26670513	     12.77224016	     28.75683211	    -64.76044734	      4.96440393	     -4.13517114	    -14.66955795	     46.53983637	     57.52534611
